<?xml version="1.0" encoding="utf-8" ?>
<svg baseProfile="full" height="300" version="1.1" width="300" xmlns="http://www.w3.org/2000/svg" xmlns:ev="http://www.w3.org/2001/xml-events" xmlns:xlink="http://www.w3.org/1999/xlink"><defs /><g fill="none" stroke="black" stroke-width="2"><rect height="70" rx="10" ry="10" width="100" x="100" y="50" /><circle cx="125" cy="85" r="8" /><circle cx="175" cy="85" r="8" /><path d="M 120,100 Q 150,120 180,100" fill="none" stroke="black" /><rect height="100" rx="10" ry="10" width="120" x="90" y="130" /><path d="M 150,150 Q 140,140 130,150 Q 120,170 150,190 Q 180,170 170,150 Q 160,140 150,150" fill="none" /><line x1="90" x2="70" y1="150" y2="180" /><line x1="210" x2="230" y1="150" y2="180" /><line x1="120" x2="120" y1="230" y2="260" /><line x1="180" x2="180" y1="230" y2="260" /><line x1="150" x2="150" y1="50" y2="30" /><circle cx="150" cy="30" fill="none" r="5" /></g></svg>